<svg xmlns="http://www.w3.org/2000/svg" width="25.569" height="24.391" viewBox="0 0 25.569 24.391">
  <path id="Caminho_828" data-name="Caminho 828" d="M25.532,21.058a.749.749,0,0,0-.6-.51L17,19.4l-3.545-7.183a.749.749,0,0,0-.672-.418h0a.749.749,0,0,0-.672.418L8.568,19.4.641,20.548a.749.749,0,0,0-.415,1.278l5.735,5.591L4.608,35.311a.749.749,0,0,0,1.087.79l7.09-3.727L19.874,36.1a.749.749,0,0,0,1.087-.79l-1.354-7.894,5.736-5.591A.749.749,0,0,0,25.532,21.058Z" transform="translate(0 -11.796)" fill="#ffb300"/>
</svg>
